<svg xmlns="http://www.w3.org/2000/svg" width="20" height="15" viewBox="0 0 20 15"><g><g><path fill="#3f3b3b" d="M2.188 13.204c-.17 0-.368-.117-.596-.352-.228-.235-.342-.44-.342-.613v-9.21l8.34 6.857c.065.054.13.094.195.12.065.028.137.041.215.041.078 0 .15-.013.215-.04a.773.773 0 0 0 .195-.12l8.34-6.857v9.209c0 .174-.01.378-.03.613-.019.235-.113.352-.282.352zM18.438 1.62L10 8.564 1.582 1.64c.104-.013.208-.02.313-.02zm1.552-.03a.515.515 0 0 0-.049-.171c-.078-.362-.244-.634-.498-.815-.254-.181-.589-.272-1.005-.272H2.188c-.378 0-.746.07-1.104.212-.358.14-.635.345-.83.613a.149.149 0 0 0-.059.05.328.328 0 0 1-.039.051.734.734 0 0 0-.136.252.482.482 0 0 0 0 .271.183.183 0 0 0-.02.08v10.384c0 .537.234 1.047.703 1.53.469.483.964.724 1.485.724h16.25c.52 0 .911-.241 1.171-.724s.391-.993.391-1.53V1.863a.183.183 0 0 0-.02-.08.64.64 0 0 0 .01-.192z"/></g></g></svg>