<svg xmlns="http://www.w3.org/2000/svg" width="20" height="13" viewBox="0 0 20 13"><g><g><path fill="#3f3b3b" d="M13.796 6.64a3.795 3.795 0 0 1-3.784 3.784A3.795 3.795 0 0 1 6.228 6.64a3.795 3.795 0 0 1 3.784-3.784 3.795 3.795 0 0 1 3.784 3.784zm-1.262 0a2.53 2.53 0 0 0-2.522-2.523A2.53 2.53 0 0 0 7.489 6.64a2.53 2.53 0 0 0 2.523 2.523 2.53 2.53 0 0 0 2.522-2.523zm7.253.6c-3.185 3.752-6.559 5.707-9.775 5.707-3.217 0-6.59-1.955-9.776-5.676a.918.918 0 0 1 0-1.23C3.421 2.288 6.796.333 10.012.333s6.59 1.955 9.775 5.708a.95.95 0 0 1 0 1.198zm-1.135-.6c-2.838-3.248-5.897-5.045-8.64-5.045-2.744 0-5.802 1.797-8.64 5.045 2.838 3.248 5.896 5.045 8.64 5.045 2.743 0 5.802-1.797 8.64-5.045z"/></g></g></svg>