<svg xmlns="http://www.w3.org/2000/svg" width="40" height="72" viewBox="0 0 40 72"><defs><clipPath id="5sq2a"><path fill="#fff" d="M0 6a6 6 0 0 1 6-6h28a6 6 0 0 1 6 6v60a6 6 0 0 1-6 6H6a6 6 0 0 1-6-6z"/></clipPath><clipPath id="5sq2b"><path fill="#fff" d="M2 7a4 4 0 0 1 4-4h11.653a1 1 0 0 1 .986.836l.222 1.328a1 1 0 0 0 .986.836h.306a1 1 0 0 0 .986-.836l.222-1.328A1 1 0 0 1 22.347 3H34a4 4 0 0 1 4 4v58a4 4 0 0 1-4 4H6a4 4 0 0 1-4-4z"/></clipPath></defs><g><g><g><path fill="none" stroke="#d5d8df" stroke-linejoin="round" stroke-miterlimit="20" stroke-width="2" d="M0 6a6 6 0 0 1 6-6h28a6 6 0 0 1 6 6v60a6 6 0 0 1-6 6H6a6 6 0 0 1-6-6z" clip-path="url(&quot;#5sq2a&quot;)"/></g><g><path fill="none" stroke="#868d95" stroke-miterlimit="20" stroke-width="2" d="M2 7a4 4 0 0 1 4-4h11.653a1 1 0 0 1 .986.836l.222 1.328a1 1 0 0 0 .986.836h.306a1 1 0 0 0 .986-.836l.222-1.328A1 1 0 0 1 22.347 3H34a4 4 0 0 1 4 4v58a4 4 0 0 1-4 4H6a4 4 0 0 1-4-4z" clip-path="url(&quot;#5sq2b&quot;)"/></g><g><g/><g><g><text dominant-baseline="text-before-edge" style="font-kerning:normal" fill="#51565b" font-family="ScandiaWeb-Regular" font-size="12" transform="translate(11 29)"><tspan style="font-kerning:normal">6,5</tspan></text></g></g></g></g></g></svg>