<?xml version="1.0" encoding="UTF-8"?>
<svg id="SVGDoc" width="20" height="20" xmlns="http://www.w3.org/2000/svg" version="1.1" xmlns:xlink="http://www.w3.org/1999/xlink" xmlns:avocode="https://avocode.com/" viewBox="0 0 20 20"><defs></defs><desc>Generated with Avocode.</desc><g><g><title>Icon</title><g><title>Icon Color</title><path d="M13.79582,6.64c0,2.08119 -1.7028,3.78399 -3.78399,3.78399c-2.0812,0 -3.784,-1.7028 -3.784,-3.78399c0,-2.0812 1.7028,-3.784 3.784,-3.784c2.08119,0 3.78399,1.7028 3.78399,3.784zM12.53448,6.64c0,-1.38747 -1.13519,-2.52267 -2.52266,-2.52267c-1.38747,0 -2.52267,1.1352 -2.52267,2.52267c0,1.38747 1.1352,2.52266 2.52267,2.52266c1.38747,0 2.52266,-1.13519 2.52266,-2.52266zM19.78715,7.23913c-3.18487,3.75247 -6.55893,5.70753 -9.77533,5.70753c-3.2164,0 -6.59046,-1.95507 -9.77533,-5.676c-0.31533,-0.34687 -0.31533,-0.88293 0,-1.2298c3.18487,-3.75246 6.55893,-5.70753 9.77533,-5.70753c3.2164,0 6.59046,1.95507 9.77533,5.70753c0.2838,0.34687 0.2838,0.8514 0,1.19827zM18.65195,6.63999c-2.83799,-3.24793 -5.89673,-5.04532 -8.64013,-5.04532c-2.7434,0 -5.80212,1.7974 -8.64013,5.04532c2.838,3.24793 5.89673,5.04533 8.64013,5.04533c2.7434,0 5.80213,-1.7974 8.64013,-5.04533z" fill="#fafafb" fill-opacity="1"></path></g></g></g></svg>