<svg xmlns="http://www.w3.org/2000/svg" width="48" height="48" viewBox="0 0 48 48"><defs><clipPath id="41ona"><path fill="#fff" d="M0 12C0 5.373 5.373 0 12 0h24c6.627 0 12 5.373 12 12v24c0 6.627-5.373 12-12 12H12C5.373 48 0 42.627 0 36z"/></clipPath><clipPath id="41onb"><path fill="#fff" d="M4 13a9 9 0 0 1 18 0 9 9 0 0 1-18 0z"/></clipPath><clipPath id="41onc"><path fill="#fff" d="M4 13a9 9 0 0 1 18 0 9 9 0 0 1-18 0z"/></clipPath><clipPath id="41ond"><path fill="#fff" d="M4 13a9 9 0 0 1 18 0 9 9 0 0 1-18 0z"/></clipPath><clipPath id="41one"><path fill="#fff" d="M26 13a9 9 0 0 1 18 0 9 9 0 0 1-18 0z"/></clipPath><clipPath id="41onf"><path fill="#fff" d="M26 13a9 9 0 0 1 18 0 9 9 0 0 1-18 0z"/></clipPath><clipPath id="41ong"><path fill="#fff" d="M26 13a9 9 0 0 1 18 0 9 9 0 0 1-18 0z"/></clipPath><clipPath id="41onh"><path fill="#fff" d="M4 35a9 9 0 0 1 18 0 9 9 0 0 1-18 0z"/></clipPath><clipPath id="41oni"><path fill="#fff" d="M4 35a9 9 0 0 1 18 0 9 9 0 0 1-18 0z"/></clipPath><clipPath id="41onj"><path fill="#fff" d="M4 35a9 9 0 0 1 18 0 9 9 0 0 1-18 0z"/></clipPath><clipPath id="41onk"><path fill="#fff" d="M26 35a9 9 0 0 1 18 0 9 9 0 0 1-18 0z"/></clipPath><clipPath id="41onl"><path fill="#fff" d="M26 35a9 9 0 0 1 18 0 9 9 0 0 1-18 0z"/></clipPath><clipPath id="41onm"><path fill="#fff" d="M26 35a9 9 0 0 1 18 0 9 9 0 0 1-18 0z"/></clipPath></defs><g><g><g><path fill="none" stroke="#868d95" stroke-miterlimit="20" stroke-width="2" d="M0 12C0 5.373 5.373 0 12 0h24c6.627 0 12 5.373 12 12v24c0 6.627-5.373 12-12 12H12C5.373 48 0 42.627 0 36z" clip-path="url(&quot;#41ona&quot;)"/></g><g><path fill="none" stroke="#868d95" stroke-miterlimit="20" stroke-width="12" d="M4 13a9 9 0 0 1 9-9h0a9 9 0 0 1 9 9v0a9 9 0 0 1-9 9h0a9 9 0 0 1-9-9z" clip-path="url(&quot;#41onb&quot;)"/><path fill="none" stroke="#fff" stroke-miterlimit="20" stroke-width="10" d="M4 13a9 9 0 0 1 9-9h0a9 9 0 0 1 9 9v0a9 9 0 0 1-9 9h0a9 9 0 0 1-9-9z" clip-path="url(&quot;#41onc&quot;)"/><path fill="none" stroke="#d5d8df" stroke-miterlimit="20" stroke-width="2" d="M4 13a9 9 0 0 1 9-9h0a9 9 0 0 1 9 9v0a9 9 0 0 1-9 9h0a9 9 0 0 1-9-9z" clip-path="url(&quot;#41ond&quot;)"/></g><g><path fill="#f2f4f8" d="M26 13a9 9 0 0 1 18 0 9 9 0 0 1-18 0z"/><path fill="none" stroke="#868d95" stroke-miterlimit="20" stroke-width="8" d="M26 13a9 9 0 0 1 9-9v0a9 9 0 0 1 9 9v0a9 9 0 0 1-9 9v0a9 9 0 0 1-9-9z" clip-path="url(&quot;#41one&quot;)"/><path fill="none" stroke="#fff" stroke-miterlimit="20" stroke-width="6" d="M26 13a9 9 0 0 1 9-9v0a9 9 0 0 1 9 9v0a9 9 0 0 1-9 9v0a9 9 0 0 1-9-9z" clip-path="url(&quot;#41onf&quot;)"/><path fill="none" stroke="#d5d8df" stroke-miterlimit="20" stroke-width="2" d="M26 13a9 9 0 0 1 9-9v0a9 9 0 0 1 9 9v0a9 9 0 0 1-9 9v0a9 9 0 0 1-9-9z" clip-path="url(&quot;#41ong&quot;)"/></g><g><path fill="none" stroke="#868d95" stroke-miterlimit="20" stroke-width="12" d="M4 35a9 9 0 0 1 9-9h0a9 9 0 0 1 9 9v0a9 9 0 0 1-9 9h0a9 9 0 0 1-9-9z" clip-path="url(&quot;#41onh&quot;)"/><path fill="none" stroke="#fff" stroke-miterlimit="20" stroke-width="10" d="M4 35a9 9 0 0 1 9-9h0a9 9 0 0 1 9 9v0a9 9 0 0 1-9 9h0a9 9 0 0 1-9-9z" clip-path="url(&quot;#41oni&quot;)"/><path fill="none" stroke="#d5d8df" stroke-miterlimit="20" stroke-width="2" d="M4 35a9 9 0 0 1 9-9h0a9 9 0 0 1 9 9v0a9 9 0 0 1-9 9h0a9 9 0 0 1-9-9z" clip-path="url(&quot;#41onj&quot;)"/></g><g><path fill="none" stroke="#868d95" stroke-miterlimit="20" stroke-width="12" d="M26 35a9 9 0 0 1 9-9v0a9 9 0 0 1 9 9v0a9 9 0 0 1-9 9v0a9 9 0 0 1-9-9z" clip-path="url(&quot;#41onk&quot;)"/><path fill="none" stroke="#fff" stroke-miterlimit="20" stroke-width="10" d="M26 35a9 9 0 0 1 9-9v0a9 9 0 0 1 9 9v0a9 9 0 0 1-9 9v0a9 9 0 0 1-9-9z" clip-path="url(&quot;#41onl&quot;)"/><path fill="none" stroke="#d5d8df" stroke-miterlimit="20" stroke-width="2" d="M26 35a9 9 0 0 1 9-9v0a9 9 0 0 1 9 9v0a9 9 0 0 1-9 9v0a9 9 0 0 1-9-9z" clip-path="url(&quot;#41onm&quot;)"/></g></g></g></svg>