<svg xmlns="http://www.w3.org/2000/svg" width="24" height="24" viewBox="0 0 24 24"><g><g><path fill="#006eff" d="M11.06 7.6c-.262-.228-.393-.55-.393-.968 0-.377.134-.688.404-.932.269-.245.582-.367.939-.367.343 0 .648.111.914.332.266.222.4.544.4.967 0 .41-.13.731-.39.963-.26.23-.568.346-.924.346-.37 0-.686-.114-.95-.341zm2.263 9.68c0 .46-.126.807-.38 1.043-.252.236-.573.354-.963.354-.389 0-.705-.121-.948-.362-.244-.242-.365-.587-.365-1.036v-6.574c0-.454.121-.796.365-1.027.243-.23.56-.345.948-.345.39 0 .71.115.964.345.253.23.38.55.38.96zM12 24c6.629 0 12-5.373 12-12 0-6.629-5.373-12-12-12C5.371 0 0 5.373 0 12c0 6.629 5.373 12 12 12z"/></g></g></svg>