<svg xmlns="http://www.w3.org/2000/svg" width="24" height="14" viewBox="0 0 24 14"><g><g><path fill="#3f3b3b" d="M.288 13.724a1.19 1.19 0 0 1-.216-.333A1.037 1.037 0 0 1 0 12.989c0-.138.024-.269.072-.391a.89.89 0 0 1 .216-.322.94.94 0 0 1 .337-.207A1.2 1.2 0 0 1 1.033 12h21.934c.144 0 .28.023.408.069a.94.94 0 0 1 .337.207.89.89 0 0 1 .216.322c.048.122.072.253.072.39 0 .154-.024.288-.072.403a1.19 1.19 0 0 1-.216.333.94.94 0 0 1-.337.207 1.2 1.2 0 0 1-.408.069H1.033a1.2 1.2 0 0 1-.408-.069.94.94 0 0 1-.337-.207zm0-6a1.19 1.19 0 0 1-.216-.333A1.037 1.037 0 0 1 0 6.989c0-.138.024-.269.072-.391a.89.89 0 0 1 .216-.322.94.94 0 0 1 .337-.207A1.2 1.2 0 0 1 1.033 6h21.934c.144 0 .28.023.408.069a.94.94 0 0 1 .337.207.89.89 0 0 1 .216.322c.048.122.072.253.072.39 0 .154-.024.288-.072.403a1.19 1.19 0 0 1-.216.333.94.94 0 0 1-.337.207 1.2 1.2 0 0 1-.408.069H1.033a1.2 1.2 0 0 1-.408-.069.94.94 0 0 1-.337-.207zm0-6a1.19 1.19 0 0 1-.216-.333A1.037 1.037 0 0 1 0 .989C0 .85.024.72.072.598A.89.89 0 0 1 .288.276.94.94 0 0 1 .625.069 1.2 1.2 0 0 1 1.033 0h21.934c.144 0 .28.023.408.069a.94.94 0 0 1 .337.207.89.89 0 0 1 .216.322c.048.122.072.253.072.39 0 .154-.024.288-.072.403a1.19 1.19 0 0 1-.216.333.94.94 0 0 1-.337.207 1.2 1.2 0 0 1-.408.069H1.033a1.2 1.2 0 0 1-.408-.069.94.94 0 0 1-.337-.207z"/></g></g></svg>