<svg xmlns="http://www.w3.org/2000/svg" width="24" height="24" viewBox="0 0 24 24"><g><g><path fill="#3f3b3b" d="M22.833 20.969c0 1.594-1.27 2.894-2.846 2.894-1.575 0-2.845-1.3-2.845-2.894 0-1.595 1.27-2.895 2.845-2.895 1.576 0 2.846 1.3 2.846 2.895zm-4.122 0c0 .736.576 1.325 1.276 1.325.7 0 1.276-.59 1.276-1.325 0-.736-.575-1.326-1.276-1.326-.7 0-1.276.59-1.276 1.326zm-8.243 0c0 1.594-1.27 2.894-2.846 2.894-1.575 0-2.845-1.3-2.845-2.894 0-1.595 1.27-2.895 2.845-2.895 1.576 0 2.846 1.3 2.846 2.895zm-4.122 0c0 .736.576 1.325 1.276 1.325.7 0 1.276-.59 1.276-1.325 0-.736-.575-1.326-1.276-1.326-.7 0-1.276.59-1.276 1.326zM4.016.14c.347 0 .648.227.749.55l.024.1.53 3.042h17.76c.458 0 .81.388.783.833l-.012.095-2.061 11.077a.785.785 0 0 1-.67.635l-.101.006H6.592a.785.785 0 0 1-.749-.55l-.024-.1L3.356 1.71H.925c-.4 0-.73-.3-.779-.686L.14.925c0-.4.3-.73.686-.779L.925.14zm18.118 5.262H5.593l1.657 9.507h13.115z"/></g></g></svg>