<svg xmlns="http://www.w3.org/2000/svg" width="19" height="24" viewBox="0 0 19 24"><g><g><path fill="#3f3b3b" d="M17.25 22.5H1.5v-3c0-3.712 3.038-6.75 6.75-6.75h2.25c3.712 0 6.75 3.038 6.75 6.75zM4.5 6.375c0-2.7 2.175-4.875 4.875-4.875s4.875 2.175 4.875 4.875-2.175 4.875-4.875 4.875A4.865 4.865 0 0 1 4.5 6.375zm8.475 5.25c1.688-1.163 2.775-3.075 2.775-5.25A6.37 6.37 0 0 0 9.375 0 6.37 6.37 0 0 0 3 6.375c0 2.175 1.087 4.088 2.775 5.25C2.438 12.675 0 15.825 0 19.5V24h18.75v-4.5c0-3.675-2.438-6.825-5.775-7.875z"/></g></g></svg>